<svg xmlns="http://www.w3.org/2000/svg" viewBox="0 0 1024 1024" width="1024" height="1024">
<defs><linearGradient id="bg" x1="0" y1="0" x2="0" y2="1"><stop offset="0" stop-color="#ff9c40"/><stop offset="1" stop-color="#f77e16"/></linearGradient></defs>
<path d="M1022.0 512.0 L1021.9 630.8 L1021.7 668.7 L1021.4 696.3 L1020.9 718.7 L1020.3 737.9 L1019.5 754.8 L1018.6 770.1 L1017.5 784.1 L1016.3 797.0 L1015.0 809.0 L1013.5 820.3 L1011.9 830.8 L1010.1 840.8 L1008.2 850.3 L1006.1 859.3 L1003.9 867.9 L1001.5 876.1 L999.0 883.9 L996.3 891.3 L993.5 898.5 L990.5 905.4 L987.3 912.0 L984.0 918.3 L980.5 924.3 L976.9 930.2 L973.1 935.8 L969.1 941.1 L964.9 946.3 L960.5 951.2 L956.0 956.0 L951.2 960.5 L946.3 964.9 L941.1 969.1 L935.8 973.1 L930.2 976.9 L924.3 980.5 L918.3 984.0 L912.0 987.3 L905.4 990.5 L898.5 993.5 L891.3 996.3 L883.9 999.0 L876.1 1001.5 L867.9 1003.9 L859.3 1006.1 L850.3 1008.2 L840.8 1010.1 L830.8 1011.9 L820.3 1013.5 L809.0 1015.0 L797.0 1016.3 L784.1 1017.5 L770.1 1018.6 L754.8 1019.5 L737.9 1020.3 L718.7 1020.9 L696.3 1021.4 L668.7 1021.7 L630.8 1021.9 L512.0 1022.0 L393.2 1021.9 L355.3 1021.7 L327.7 1021.4 L305.3 1020.9 L286.1 1020.3 L269.2 1019.5 L253.9 1018.6 L239.9 1017.5 L227.0 1016.3 L215.0 1015.0 L203.7 1013.5 L193.2 1011.9 L183.2 1010.1 L173.7 1008.2 L164.7 1006.1 L156.1 1003.9 L147.9 1001.5 L140.1 999.0 L132.7 996.3 L125.5 993.5 L118.6 990.5 L112.0 987.3 L105.7 984.0 L99.7 980.5 L93.8 976.9 L88.2 973.1 L82.9 969.1 L77.7 964.9 L72.8 960.5 L68.0 956.0 L63.5 951.2 L59.1 946.3 L54.9 941.1 L50.9 935.8 L47.1 930.2 L43.5 924.3 L40.0 918.3 L36.7 912.0 L33.5 905.4 L30.5 898.5 L27.7 891.3 L25.0 883.9 L22.5 876.1 L20.1 867.9 L17.9 859.3 L15.8 850.3 L13.9 840.8 L12.1 830.8 L10.5 820.3 L9.0 809.0 L7.7 797.0 L6.5 784.1 L5.4 770.1 L4.5 754.8 L3.7 737.9 L3.1 718.7 L2.6 696.3 L2.3 668.7 L2.1 630.8 L2.0 512.0 L2.1 393.2 L2.3 355.3 L2.6 327.7 L3.1 305.3 L3.7 286.1 L4.5 269.2 L5.4 253.9 L6.5 239.9 L7.7 227.0 L9.0 215.0 L10.5 203.7 L12.1 193.2 L13.9 183.2 L15.8 173.7 L17.9 164.7 L20.1 156.1 L22.5 147.9 L25.0 140.1 L27.7 132.7 L30.5 125.5 L33.5 118.6 L36.7 112.0 L40.0 105.7 L43.5 99.7 L47.1 93.8 L50.9 88.2 L54.9 82.9 L59.1 77.7 L63.5 72.8 L68.0 68.0 L72.8 63.5 L77.7 59.1 L82.9 54.9 L88.2 50.9 L93.8 47.1 L99.7 43.5 L105.7 40.0 L112.0 36.7 L118.6 33.5 L125.5 30.5 L132.7 27.7 L140.1 25.0 L147.9 22.5 L156.1 20.1 L164.7 17.9 L173.7 15.8 L183.2 13.9 L193.2 12.1 L203.7 10.5 L215.0 9.0 L227.0 7.7 L239.9 6.5 L253.9 5.4 L269.2 4.5 L286.1 3.7 L305.3 3.1 L327.7 2.6 L355.3 2.3 L393.2 2.1 L512.0 2.0 L630.8 2.1 L668.7 2.3 L696.3 2.6 L718.7 3.1 L737.9 3.7 L754.8 4.5 L770.1 5.4 L784.1 6.5 L797.0 7.7 L809.0 9.0 L820.3 10.5 L830.8 12.1 L840.8 13.9 L850.3 15.8 L859.3 17.9 L867.9 20.1 L876.1 22.5 L883.9 25.0 L891.3 27.7 L898.5 30.5 L905.4 33.5 L912.0 36.7 L918.3 40.0 L924.3 43.5 L930.2 47.1 L935.8 50.9 L941.1 54.9 L946.3 59.1 L951.2 63.5 L956.0 68.0 L960.5 72.8 L964.9 77.7 L969.1 82.9 L973.1 88.2 L976.9 93.8 L980.5 99.7 L984.0 105.7 L987.3 112.0 L990.5 118.6 L993.5 125.5 L996.3 132.7 L999.0 140.1 L1001.5 147.9 L1003.9 156.1 L1006.1 164.7 L1008.2 173.7 L1010.1 183.2 L1011.9 193.2 L1013.5 203.7 L1015.0 215.0 L1016.3 227.0 L1017.5 239.9 L1018.6 253.9 L1019.5 269.2 L1020.3 286.1 L1020.9 305.3 L1021.4 327.7 L1021.7 355.3 L1021.9 393.2 Z" fill="url(#bg)"/>
<g fill="#ffffff" stroke="#ffffff" stroke-linecap="round">
<circle cx="512.0" cy="576.0" r="256.0" fill="none" stroke-width="128.0"/>
<line x1="512.0" y1="320.0" x2="512.0" y2="200.0" stroke-width="104.0"/>
<line x1="448.0" y1="160.0" x2="576.0" y2="160.0" stroke-width="96.0"/>
<line x1="512.0" y1="576.0" x2="608.4" y2="461.1" stroke-width="100.0"/>
</g></svg>
